<mxfile host="app.diagrams.net" modified="2024-02-04T07:50:56.080Z" agent="Mozilla/5.0 (Windows NT 10.0; Win64; x64) AppleWebKit/537.36 (KHTML, like Gecko) Chrome/116.0.0.0 Safari/537.36" etag="r7_ox2QXUoZ2A3-olIHK" version="23.1.1" type="github">
  <diagram id="C5RBs43oDa-KdzZeNtuy" name="Page-1">
    <mxGraphModel dx="3827" dy="1376" grid="1" gridSize="10" guides="1" tooltips="1" connect="1" arrows="1" fold="1" page="1" pageScale="1" pageWidth="827" pageHeight="1169" math="0" shadow="0">
      <root>
        <mxCell id="WIyWlLk6GJQsqaUBKTNV-0" />
        <mxCell id="WIyWlLk6GJQsqaUBKTNV-1" parent="WIyWlLk6GJQsqaUBKTNV-0" />
        <mxCell id="WIyWlLk6GJQsqaUBKTNV-2" value="" style="rounded=0;html=1;jettySize=auto;orthogonalLoop=1;fontSize=11;endArrow=block;endFill=0;endSize=8;strokeWidth=1;shadow=0;labelBackgroundColor=none;edgeStyle=orthogonalEdgeStyle;entryX=0.5;entryY=0;entryDx=0;entryDy=0;" parent="WIyWlLk6GJQsqaUBKTNV-1" source="WIyWlLk6GJQsqaUBKTNV-3" target="wZzXsFDndczXGUYGY5t2-5" edge="1">
          <mxGeometry relative="1" as="geometry">
            <mxPoint x="205" y="170" as="targetPoint" />
          </mxGeometry>
        </mxCell>
        <mxCell id="WIyWlLk6GJQsqaUBKTNV-3" value="Start" style="rounded=1;whiteSpace=wrap;html=1;fontSize=12;glass=0;strokeWidth=1;shadow=0;arcSize=50;" parent="WIyWlLk6GJQsqaUBKTNV-1" vertex="1">
          <mxGeometry x="160" y="80" width="90" height="40" as="geometry" />
        </mxCell>
        <mxCell id="wZzXsFDndczXGUYGY5t2-0" value="Win" style="rounded=1;whiteSpace=wrap;html=1;fontSize=12;glass=0;strokeWidth=1;shadow=0;arcSize=50;fillColor=#d5e8d4;strokeColor=#82b366;" vertex="1" parent="WIyWlLk6GJQsqaUBKTNV-1">
          <mxGeometry x="300" y="80" width="90" height="40" as="geometry" />
        </mxCell>
        <mxCell id="wZzXsFDndczXGUYGY5t2-1" value="Lose" style="rounded=1;whiteSpace=wrap;html=1;fontSize=12;glass=0;strokeWidth=1;shadow=0;arcSize=50;fillColor=#f8cecc;strokeColor=#b85450;" vertex="1" parent="WIyWlLk6GJQsqaUBKTNV-1">
          <mxGeometry x="430" y="80" width="90" height="40" as="geometry" />
        </mxCell>
        <mxCell id="wZzXsFDndczXGUYGY5t2-8" style="edgeStyle=none;curved=1;rounded=0;orthogonalLoop=1;jettySize=auto;html=1;exitX=0.5;exitY=1;exitDx=0;exitDy=0;entryX=0.5;entryY=0;entryDx=0;entryDy=0;fontSize=12;startSize=8;endSize=8;" edge="1" parent="WIyWlLk6GJQsqaUBKTNV-1" source="wZzXsFDndczXGUYGY5t2-5" target="wZzXsFDndczXGUYGY5t2-7">
          <mxGeometry relative="1" as="geometry" />
        </mxCell>
        <mxCell id="wZzXsFDndczXGUYGY5t2-5" value="print ascii art" style="rounded=1;whiteSpace=wrap;html=1;fontSize=16;" vertex="1" parent="WIyWlLk6GJQsqaUBKTNV-1">
          <mxGeometry x="145" y="160" width="120" height="60" as="geometry" />
        </mxCell>
        <mxCell id="wZzXsFDndczXGUYGY5t2-10" value="" style="edgeStyle=none;curved=1;rounded=0;orthogonalLoop=1;jettySize=auto;html=1;fontSize=12;startSize=8;endSize=8;" edge="1" parent="WIyWlLk6GJQsqaUBKTNV-1" source="wZzXsFDndczXGUYGY5t2-7" target="wZzXsFDndczXGUYGY5t2-9">
          <mxGeometry relative="1" as="geometry" />
        </mxCell>
        <mxCell id="wZzXsFDndczXGUYGY5t2-7" value="print&amp;nbsp;Welcome message and number range" style="rounded=1;whiteSpace=wrap;html=1;fontSize=16;" vertex="1" parent="WIyWlLk6GJQsqaUBKTNV-1">
          <mxGeometry x="145" y="260" width="120" height="60" as="geometry" />
        </mxCell>
        <mxCell id="wZzXsFDndczXGUYGY5t2-14" style="edgeStyle=none;curved=1;rounded=0;orthogonalLoop=1;jettySize=auto;html=1;exitX=0;exitY=0.5;exitDx=0;exitDy=0;entryX=1;entryY=0.5;entryDx=0;entryDy=0;fontSize=12;startSize=8;endSize=8;" edge="1" parent="WIyWlLk6GJQsqaUBKTNV-1" source="wZzXsFDndczXGUYGY5t2-9" target="wZzXsFDndczXGUYGY5t2-13">
          <mxGeometry relative="1" as="geometry" />
        </mxCell>
        <mxCell id="wZzXsFDndczXGUYGY5t2-15" style="edgeStyle=none;curved=1;rounded=0;orthogonalLoop=1;jettySize=auto;html=1;exitX=1;exitY=0.5;exitDx=0;exitDy=0;entryX=0;entryY=0.5;entryDx=0;entryDy=0;fontSize=12;startSize=8;endSize=8;" edge="1" parent="WIyWlLk6GJQsqaUBKTNV-1" source="wZzXsFDndczXGUYGY5t2-9" target="wZzXsFDndczXGUYGY5t2-11">
          <mxGeometry relative="1" as="geometry" />
        </mxCell>
        <mxCell id="wZzXsFDndczXGUYGY5t2-9" value="Choose mode:&lt;br&gt;&amp;nbsp;easy or hard" style="rhombus;whiteSpace=wrap;html=1;fontSize=16;rounded=1;" vertex="1" parent="WIyWlLk6GJQsqaUBKTNV-1">
          <mxGeometry x="130" y="340" width="150" height="150" as="geometry" />
        </mxCell>
        <mxCell id="wZzXsFDndczXGUYGY5t2-19" style="edgeStyle=orthogonalEdgeStyle;rounded=0;orthogonalLoop=1;jettySize=auto;html=1;exitX=0.5;exitY=1;exitDx=0;exitDy=0;entryX=0.5;entryY=0;entryDx=0;entryDy=0;fontSize=12;startSize=8;endSize=8;" edge="1" parent="WIyWlLk6GJQsqaUBKTNV-1" source="wZzXsFDndczXGUYGY5t2-11" target="wZzXsFDndczXGUYGY5t2-16">
          <mxGeometry relative="1" as="geometry">
            <Array as="points">
              <mxPoint x="360" y="500" />
              <mxPoint x="205" y="500" />
            </Array>
          </mxGeometry>
        </mxCell>
        <mxCell id="wZzXsFDndczXGUYGY5t2-11" value="Easy: get 10 attempts" style="whiteSpace=wrap;html=1;fontSize=16;" vertex="1" parent="WIyWlLk6GJQsqaUBKTNV-1">
          <mxGeometry x="300" y="385" width="120" height="60" as="geometry" />
        </mxCell>
        <mxCell id="wZzXsFDndczXGUYGY5t2-17" style="edgeStyle=orthogonalEdgeStyle;rounded=0;orthogonalLoop=1;jettySize=auto;html=1;exitX=0.5;exitY=1;exitDx=0;exitDy=0;entryX=0.5;entryY=0;entryDx=0;entryDy=0;fontSize=12;startSize=8;endSize=8;" edge="1" parent="WIyWlLk6GJQsqaUBKTNV-1" source="wZzXsFDndczXGUYGY5t2-13" target="wZzXsFDndczXGUYGY5t2-16">
          <mxGeometry relative="1" as="geometry" />
        </mxCell>
        <mxCell id="wZzXsFDndczXGUYGY5t2-13" value="Hard: get 10 attempts" style="whiteSpace=wrap;html=1;fontSize=16;" vertex="1" parent="WIyWlLk6GJQsqaUBKTNV-1">
          <mxGeometry x="-10" y="385" width="120" height="60" as="geometry" />
        </mxCell>
        <mxCell id="wZzXsFDndczXGUYGY5t2-34" style="edgeStyle=none;curved=1;rounded=0;orthogonalLoop=1;jettySize=auto;html=1;exitX=0.5;exitY=1;exitDx=0;exitDy=0;entryX=0.5;entryY=0;entryDx=0;entryDy=0;fontSize=12;startSize=8;endSize=8;" edge="1" parent="WIyWlLk6GJQsqaUBKTNV-1" source="wZzXsFDndczXGUYGY5t2-16" target="wZzXsFDndczXGUYGY5t2-33">
          <mxGeometry relative="1" as="geometry" />
        </mxCell>
        <mxCell id="wZzXsFDndczXGUYGY5t2-16" value="make a guess" style="rounded=1;whiteSpace=wrap;html=1;fontSize=16;" vertex="1" parent="WIyWlLk6GJQsqaUBKTNV-1">
          <mxGeometry x="145" y="555" width="120" height="60" as="geometry" />
        </mxCell>
        <mxCell id="wZzXsFDndczXGUYGY5t2-24" style="edgeStyle=none;curved=1;rounded=0;orthogonalLoop=1;jettySize=auto;html=1;exitX=0.5;exitY=1;exitDx=0;exitDy=0;entryX=0.5;entryY=0;entryDx=0;entryDy=0;fontSize=12;startSize=8;endSize=8;" edge="1" parent="WIyWlLk6GJQsqaUBKTNV-1" source="wZzXsFDndczXGUYGY5t2-20" target="wZzXsFDndczXGUYGY5t2-23">
          <mxGeometry relative="1" as="geometry" />
        </mxCell>
        <mxCell id="wZzXsFDndczXGUYGY5t2-25" style="edgeStyle=none;curved=1;rounded=0;orthogonalLoop=1;jettySize=auto;html=1;exitX=0;exitY=0.5;exitDx=0;exitDy=0;entryX=1;entryY=0.5;entryDx=0;entryDy=0;fontSize=12;startSize=8;endSize=8;" edge="1" parent="WIyWlLk6GJQsqaUBKTNV-1" source="wZzXsFDndczXGUYGY5t2-20" target="wZzXsFDndczXGUYGY5t2-22">
          <mxGeometry relative="1" as="geometry" />
        </mxCell>
        <mxCell id="wZzXsFDndczXGUYGY5t2-30" style="edgeStyle=none;curved=1;rounded=0;orthogonalLoop=1;jettySize=auto;html=1;exitX=1;exitY=0.5;exitDx=0;exitDy=0;entryX=0;entryY=0.5;entryDx=0;entryDy=0;fontSize=12;startSize=8;endSize=8;" edge="1" parent="WIyWlLk6GJQsqaUBKTNV-1" source="wZzXsFDndczXGUYGY5t2-20" target="wZzXsFDndczXGUYGY5t2-29">
          <mxGeometry relative="1" as="geometry" />
        </mxCell>
        <mxCell id="wZzXsFDndczXGUYGY5t2-20" value="compare guesses and assumed no" style="rhombus;whiteSpace=wrap;html=1;fontSize=16;" vertex="1" parent="WIyWlLk6GJQsqaUBKTNV-1">
          <mxGeometry x="130" y="730" width="150" height="160" as="geometry" />
        </mxCell>
        <mxCell id="wZzXsFDndczXGUYGY5t2-39" style="edgeStyle=none;curved=1;rounded=0;orthogonalLoop=1;jettySize=auto;html=1;exitX=0.5;exitY=1;exitDx=0;exitDy=0;entryX=0.5;entryY=0;entryDx=0;entryDy=0;fontSize=12;startSize=8;endSize=8;" edge="1" parent="WIyWlLk6GJQsqaUBKTNV-1" source="wZzXsFDndczXGUYGY5t2-22" target="wZzXsFDndczXGUYGY5t2-37">
          <mxGeometry relative="1" as="geometry" />
        </mxCell>
        <mxCell id="wZzXsFDndczXGUYGY5t2-22" value="guessed no is big" style="rounded=1;whiteSpace=wrap;html=1;fontSize=16;" vertex="1" parent="WIyWlLk6GJQsqaUBKTNV-1">
          <mxGeometry x="-20" y="780" width="120" height="60" as="geometry" />
        </mxCell>
        <mxCell id="wZzXsFDndczXGUYGY5t2-38" style="edgeStyle=orthogonalEdgeStyle;rounded=0;orthogonalLoop=1;jettySize=auto;html=1;exitX=0.5;exitY=1;exitDx=0;exitDy=0;entryX=1;entryY=0.5;entryDx=0;entryDy=0;fontSize=12;startSize=8;endSize=8;" edge="1" parent="WIyWlLk6GJQsqaUBKTNV-1" source="wZzXsFDndczXGUYGY5t2-23" target="wZzXsFDndczXGUYGY5t2-37">
          <mxGeometry relative="1" as="geometry" />
        </mxCell>
        <mxCell id="wZzXsFDndczXGUYGY5t2-23" value="guessed no is small" style="rounded=1;whiteSpace=wrap;html=1;fontSize=16;" vertex="1" parent="WIyWlLk6GJQsqaUBKTNV-1">
          <mxGeometry x="145" y="920" width="120" height="60" as="geometry" />
        </mxCell>
        <mxCell id="wZzXsFDndczXGUYGY5t2-32" style="edgeStyle=none;curved=1;rounded=0;orthogonalLoop=1;jettySize=auto;html=1;exitX=1;exitY=0.5;exitDx=0;exitDy=0;entryX=0;entryY=0.5;entryDx=0;entryDy=0;fontSize=12;startSize=8;endSize=8;" edge="1" parent="WIyWlLk6GJQsqaUBKTNV-1" source="wZzXsFDndczXGUYGY5t2-29" target="wZzXsFDndczXGUYGY5t2-31">
          <mxGeometry relative="1" as="geometry" />
        </mxCell>
        <mxCell id="wZzXsFDndczXGUYGY5t2-29" value="Guessed correctly" style="rounded=1;whiteSpace=wrap;html=1;fontSize=16;" vertex="1" parent="WIyWlLk6GJQsqaUBKTNV-1">
          <mxGeometry x="320" y="780" width="120" height="60" as="geometry" />
        </mxCell>
        <mxCell id="wZzXsFDndczXGUYGY5t2-31" value="Win" style="rounded=1;whiteSpace=wrap;html=1;fontSize=12;glass=0;strokeWidth=1;shadow=0;arcSize=50;fillColor=#d5e8d4;strokeColor=#82b366;" vertex="1" parent="WIyWlLk6GJQsqaUBKTNV-1">
          <mxGeometry x="480" y="790" width="90" height="40" as="geometry" />
        </mxCell>
        <mxCell id="wZzXsFDndczXGUYGY5t2-35" style="edgeStyle=none;curved=1;rounded=0;orthogonalLoop=1;jettySize=auto;html=1;exitX=0.5;exitY=1;exitDx=0;exitDy=0;entryX=0.5;entryY=0;entryDx=0;entryDy=0;fontSize=12;startSize=8;endSize=8;" edge="1" parent="WIyWlLk6GJQsqaUBKTNV-1" source="wZzXsFDndczXGUYGY5t2-33" target="wZzXsFDndczXGUYGY5t2-20">
          <mxGeometry relative="1" as="geometry" />
        </mxCell>
        <mxCell id="wZzXsFDndczXGUYGY5t2-33" value="reduce one chance" style="whiteSpace=wrap;html=1;fontSize=16;" vertex="1" parent="WIyWlLk6GJQsqaUBKTNV-1">
          <mxGeometry x="145" y="640" width="120" height="60" as="geometry" />
        </mxCell>
        <mxCell id="wZzXsFDndczXGUYGY5t2-40" style="edgeStyle=orthogonalEdgeStyle;rounded=0;orthogonalLoop=1;jettySize=auto;html=1;exitX=0;exitY=0.5;exitDx=0;exitDy=0;entryX=0;entryY=0.5;entryDx=0;entryDy=0;fontSize=12;startSize=8;endSize=8;" edge="1" parent="WIyWlLk6GJQsqaUBKTNV-1" source="wZzXsFDndczXGUYGY5t2-37" target="wZzXsFDndczXGUYGY5t2-16">
          <mxGeometry relative="1" as="geometry" />
        </mxCell>
        <mxCell id="wZzXsFDndczXGUYGY5t2-42" style="edgeStyle=none;curved=1;rounded=0;orthogonalLoop=1;jettySize=auto;html=1;exitX=0.5;exitY=1;exitDx=0;exitDy=0;fontSize=12;startSize=8;endSize=8;" edge="1" parent="WIyWlLk6GJQsqaUBKTNV-1" source="wZzXsFDndczXGUYGY5t2-37">
          <mxGeometry relative="1" as="geometry">
            <mxPoint x="480" y="1120" as="targetPoint" />
          </mxGeometry>
        </mxCell>
        <mxCell id="wZzXsFDndczXGUYGY5t2-37" value="still chance left" style="rhombus;whiteSpace=wrap;html=1;fontSize=16;" vertex="1" parent="WIyWlLk6GJQsqaUBKTNV-1">
          <mxGeometry x="-20" y="1010" width="120" height="110" as="geometry" />
        </mxCell>
        <mxCell id="wZzXsFDndczXGUYGY5t2-41" value="Yes" style="text;html=1;align=center;verticalAlign=middle;resizable=0;points=[];autosize=1;strokeColor=none;fillColor=none;fontSize=16;" vertex="1" parent="WIyWlLk6GJQsqaUBKTNV-1">
          <mxGeometry x="-50" y="1018" width="50" height="30" as="geometry" />
        </mxCell>
        <mxCell id="wZzXsFDndczXGUYGY5t2-43" value="No" style="text;html=1;align=center;verticalAlign=middle;resizable=0;points=[];autosize=1;strokeColor=none;fillColor=none;fontSize=16;" vertex="1" parent="WIyWlLk6GJQsqaUBKTNV-1">
          <mxGeometry x="60" y="1090" width="40" height="30" as="geometry" />
        </mxCell>
        <mxCell id="wZzXsFDndczXGUYGY5t2-44" value="Lose" style="rounded=1;whiteSpace=wrap;html=1;fontSize=12;glass=0;strokeWidth=1;shadow=0;arcSize=50;fillColor=#f8cecc;strokeColor=#b85450;" vertex="1" parent="WIyWlLk6GJQsqaUBKTNV-1">
          <mxGeometry x="480" y="1100" width="90" height="40" as="geometry" />
        </mxCell>
      </root>
    </mxGraphModel>
  </diagram>
</mxfile>
